<svg id="global" xmlns="http://www.w3.org/2000/svg" width="24" height="24" viewBox="0 0 24 24">
  <g id="vuesax_bold_global" data-name="vuesax/bold/global">
    <path id="Vector" d="M4.49,4.59A10.006,10.006,0,0,1,0,.1C0,.07.02.03.02,0A31.893,31.893,0,0,0,3.75.84a33.548,33.548,0,0,0,.84,3.73C4.56,4.57,4.52,4.59,4.49,4.59Z" transform="translate(3.059 16.34)" fill="#28367a"/>
    <path id="Vector-2" data-name="Vector" d="M0,4.68A30.563,30.563,0,0,0,.91.84,31.281,31.281,0,0,0,4.63,0c-.01.04.02.08.02.11A10.093,10.093,0,0,1,0,4.68Z" transform="translate(16.289 16.34)" fill="#28367a"/>
    <path id="Vector-3" data-name="Vector" d="M.91,3.82A27.914,27.914,0,0,0,0,0,10.052,10.052,0,0,1,4.73,4.73,31.643,31.643,0,0,0,.91,3.82Z" transform="translate(16.289 2.98)" fill="#28367a"/>
    <path id="Vector-4" data-name="Vector" d="M3.84,3.75A28.87,28.87,0,0,0,0,4.65,10.093,10.093,0,0,1,4.57,0c.03,0,.07.03.1.03A31.248,31.248,0,0,0,3.84,3.75Z" transform="translate(2.98 3.059)" fill="#28367a"/>
    <path id="Vector-5" data-name="Vector" d="M0,4.59A28.373,28.373,0,0,1,1.02.53,1.635,1.635,0,0,0,1.04.31,10.406,10.406,0,0,1,3.49,0,10.322,10.322,0,0,1,5.93.31a1.66,1.66,0,0,0,.03.22A28.712,28.712,0,0,1,6.98,4.59,31.328,31.328,0,0,0,0,4.59Z" transform="translate(8.512 2)" fill="#28367a"/>
    <path id="Vector-6" data-name="Vector" d="M.53,5.96a1.635,1.635,0,0,0-.22-.02A10.406,10.406,0,0,1,0,3.49,10.322,10.322,0,0,1,.31,1.05a1.66,1.66,0,0,0,.22-.03A29.77,29.77,0,0,1,4.59,0a32.574,32.574,0,0,0,0,6.98A28.043,28.043,0,0,1,.53,5.96Z" transform="translate(2 8.512)" fill="#28367a"/>
    <path id="Vector-7" data-name="Vector" d="M4.28,5.94a1.635,1.635,0,0,0-.22.02A30.143,30.143,0,0,1,0,6.98,31.329,31.329,0,0,0,0,0,28.373,28.373,0,0,1,4.06,1.02a.833.833,0,0,0,.22.03,10.389,10.389,0,0,1,.31,2.44A10.406,10.406,0,0,1,4.28,5.94Z" transform="translate(17.41 8.512)" fill="#28367a"/>
    <path id="Vector-8" data-name="Vector" d="M5.96,4.06a1.66,1.66,0,0,0-.03.22,10.322,10.322,0,0,1-2.44.31,10.406,10.406,0,0,1-2.45-.31,1.635,1.635,0,0,0-.02-.22A29.77,29.77,0,0,1,0,0,31.29,31.29,0,0,0,3.49.22,31.14,31.14,0,0,0,6.98,0,28.043,28.043,0,0,1,5.96,4.06Z" transform="translate(8.512 17.41)" fill="#28367a"/>
    <path id="Vector-9" data-name="Vector" d="M.237,7.763a30.039,30.039,0,0,1,0-7.527,30.039,30.039,0,0,1,7.527,0,30.039,30.039,0,0,1,0,7.527A30.039,30.039,0,0,1,.237,7.763Z" transform="translate(8 8)" fill="#28367a"/>
    <path id="Vector-10" data-name="Vector" d="M24,0V24H0V0Z" fill="none" opacity="0"/>
    <path id="Vector-11" data-name="Vector" d="M24,0V24H0V0Z" transform="translate(24 24) rotate(180)" fill="none" opacity="0"/>
  </g>
</svg>
