<svg id="notification-bing" xmlns="http://www.w3.org/2000/svg" width="24" height="24" viewBox="0 0 24 24">
  <g id="vuesax_bulk_notification-bing" data-name="vuesax/bulk/notification-bing">
    <g id="notification-bing-2" data-name="notification-bing">
      <path id="Vector" d="M15.32,15.86a22.229,22.229,0,0,1-3.31.82c-.11.02-.22.04-.33.05-.18.03-.36.05-.54.07-.22.03-.45.05-.68.07-.63.05-1.25.08-1.88.08s-1.28-.03-1.91-.09c-.27-.02-.53-.05-.79-.09l-.44-.06c-.11-.02-.22-.03-.33-.05a20.675,20.675,0,0,1-3.28-.81A2.655,2.655,0,0,1,.15,14.28,2.653,2.653,0,0,1,.41,12l1.13-1.88A4.093,4.093,0,0,0,2,8.44V6.58a6.575,6.575,0,1,1,13.15,0V8.44a3.956,3.956,0,0,0,.47,1.68L16.75,12a2.653,2.653,0,0,1,.21,2.28A2.625,2.625,0,0,1,15.32,15.86Z" transform="translate(3.439 2.05)" fill="#28367a"/>
      <path id="Vector-2" data-name="Vector" d="M0,3.86V.76a.76.76,0,0,1,1.52,0v3.1a.773.773,0,0,1-.76.76A.76.76,0,0,1,0,3.86Z" transform="translate(11.24 6.14)" fill="#fff"/>
      <path id="Vector-3" data-name="Vector" d="M2.82,2A2.965,2.965,0,0,1,.7,1.11,2.761,2.761,0,0,1,0,0C.13.02.26.03.4.05c.23.03.47.06.71.08.57.05,1.15.08,1.73.08S3.98.18,4.54.13c.21-.02.42-.03.62-.06L5.65.01A3.014,3.014,0,0,1,2.82,2Z" transform="translate(9.18 20)" fill="#28367a"/>
      <path id="Vector-4" data-name="Vector" d="M24,0V24H0V0Z" fill="none" opacity="0"/>
    </g>
  </g>
</svg>
