<svg xmlns="http://www.w3.org/2000/svg" width="421.191" height="57.668" viewBox="0 0 421.191 57.668">
  <g id="LightSense_logo_final" data-name="LightSense logo final" transform="translate(0 0.01)">
    <g id="Group_16199" data-name="Group 16199" transform="translate(0 0.01)">
      <path id="Path_2099" data-name="Path 2099" d="M7.252,42.716C2.913,42.716,0,39.66,0,35.1V0H8.9V35.077H35.627V42.7H7.252Z" fill="#536de6"/>
      <path id="Path_2100" data-name="Path 2100" d="M28.132,9.391c-4.339,0-7.252-2.75-7.252-7.374V0h8.9V9.391h-1.65Zm0,33.325c-4.339,0-7.252-3.056-7.252-7.618V13h8.9v29.72h-1.65Z" transform="translate(21.653 0)" fill="#536de6"/>
      <path id="Path_2101" data-name="Path 2101" d="M56.435,26.359a4.907,4.907,0,0,1-5.194-5.194v-2.2H69.553V42.7H49.306C35.882,42.268,28.63,31.838,28.63,21.348S35.882.428,49.306,0H68.759V7.557H49.611c-7.8,0-11.713,6.885-11.713,13.791s3.85,13.607,11.468,13.791H61.141V26.359H56.435Z" transform="translate(29.689)" fill="#536de6"/>
      <path id="Path_2102" data-name="Path 2102" d="M52.12,17.518H85.181V0h8.9V42.716H92.249c-4.217,0-7.068-2.994-7.068-7.435V25.157H61.022V42.736H59.189c-4.217,0-7.068-2.994-7.068-7.435V17.539ZM52.12,0h8.9V12.079H58.15c-3.605,0-6.05-2.567-6.05-6.4V0Z" transform="translate(54.028)" fill="#536de6"/>
      <path id="Path_2103" data-name="Path 2103" d="M76.09,0h44.223V7.557H82.425c-3.789,0-6.335-2.689-6.335-6.641V0ZM93.18,12.141h8.9V42.716h-1.833c-4.278,0-7.068-2.994-7.068-7.435Z" transform="translate(78.905)" fill="#536de6"/>
    </g>
    <path id="Path_2104" data-name="Path 2104" d="M101.818,34.833h23.1a8.545,8.545,0,0,0,4.257-.978c.591-.326,1.243-.937,1.12-2.689a3.635,3.635,0,0,0-2.363-3.3,49.162,49.162,0,0,0-9.167-2.974,79.535,79.535,0,0,1-8.535-2.506,16.891,16.891,0,0,1-6.07-3.768,9.878,9.878,0,0,1-2.974-6.824A11.2,11.2,0,0,1,104.1,3.687C106.218,1.243,109.742,0,114.55,0h22.142V7.863h-22.2A6.973,6.973,0,0,0,110.6,8.9a2.454,2.454,0,0,0-1.039,2.607c.061.815.346,1.833,2.118,2.607a49.084,49.084,0,0,0,8.433,2.485,87.222,87.222,0,0,1,9.044,2.526,16.9,16.9,0,0,1,6.457,4.094,11.194,11.194,0,0,1,3.056,7.741,11.94,11.94,0,0,1-2.974,8.067c-2.078,2.444-5.581,3.687-10.389,3.687H109.681a7.868,7.868,0,0,1-7.863-7.863Z" transform="translate(104.917 0.01)" fill="#28367b"/>
    <path id="Path_2105" data-name="Path 2105" d="M168.388,34.833h23.1a8.545,8.545,0,0,0,4.257-.978c.591-.326,1.243-.937,1.12-2.689a3.635,3.635,0,0,0-2.363-3.3,49.162,49.162,0,0,0-9.167-2.974,79.535,79.535,0,0,1-8.535-2.506,16.891,16.891,0,0,1-6.07-3.768,9.878,9.878,0,0,1-2.974-6.824,11.2,11.2,0,0,1,2.913-8.107C172.788,1.243,176.312,0,181.12,0h22.142V7.863h-22.2A6.974,6.974,0,0,0,177.168,8.9a2.454,2.454,0,0,0-1.039,2.607c.061.815.346,1.833,2.118,2.607a49.085,49.085,0,0,0,8.433,2.485,87.222,87.222,0,0,1,9.044,2.526,16.9,16.9,0,0,1,6.457,4.094,11.194,11.194,0,0,1,3.056,7.741,11.94,11.94,0,0,1-2.974,8.067c-2.078,2.444-5.581,3.687-10.389,3.687H176.251a7.868,7.868,0,0,1-7.863-7.863Z" transform="translate(173.95 0.01)" fill="#28367b"/>
    <path id="Path_2106" data-name="Path 2106" d="M122.96.01h34.69V7.282H129.173c-3.707,0-6.213-2.648-6.213-6.58V-.01Zm0,15.624h30.82v7.272H131.536V33.763h26.542V41.1H129.967c-4.176,0-6.987-2.933-6.987-7.394V15.634Z" transform="translate(127.51)" fill="#28367b"/>
    <path id="Path_2107" data-name="Path 2107" d="M222.276,46.2c1.752,4.705-.244,9.207-4.644,10.389a31.775,31.775,0,0,1-8.046,1.059c-16.948,0-37.4-22.55-37.4-22.55l-.061-.061L151.816,10.613V41.086h-1.589c-4.176,0-6.987-2.933-6.987-7.333V0H152.1l25.075,29.883.061-.061.346.469V0h8.576V38.866c7.272,6.213,15.318,10.572,23.772,10.572a25.033,25.033,0,0,0,12.263-3.28l.061.061Z" transform="translate(148.54 0.01)" fill="#536de6"/>
    <path id="Path_2108" data-name="Path 2108" d="M189.53.01h34.69V7.282H195.743c-3.707,0-6.213-2.648-6.213-6.58V-.01Zm0,15.624h30.82v7.272H198.106V33.763h26.542V41.1H196.537c-4.176,0-6.987-2.933-6.987-7.394V15.634Z" transform="translate(196.543)" fill="#28367b"/>
  </g>
</svg>
