<svg id="global" xmlns="http://www.w3.org/2000/svg" width="24" height="24" viewBox="0 0 24 24">
  <g id="global-2" data-name="global">
    <g id="global-3" data-name="global">
      <path id="Vector" d="M10,20A10,10,0,1,1,20,10,10,10,0,0,1,10,20Z" transform="translate(2 2)" fill="none" stroke="#fff" stroke-linecap="round" stroke-linejoin="round" stroke-width="1.5" stroke-dasharray="0 0"/>
      <g id="Group_722" data-name="Group 722" transform="translate(3 3)" opacity="0.4">
        <path id="Vector-2" data-name="Vector" d="M.463,0h1a28.424,28.424,0,0,0,0,18h-1" transform="translate(4.537)" fill="none" stroke="#fff" stroke-linecap="round" stroke-linejoin="round" stroke-width="1.5" stroke-dasharray="0 0"/>
        <path id="Vector-3" data-name="Vector" d="M0,0A28.424,28.424,0,0,1,0,18" transform="translate(12)" fill="none" stroke="#fff" stroke-linecap="round" stroke-linejoin="round" stroke-width="1.5" stroke-dasharray="0 0"/>
        <path id="Vector-4" data-name="Vector" d="M0,1V0A28.424,28.424,0,0,0,18,0V1" transform="translate(0 12)" fill="none" stroke="#fff" stroke-linecap="round" stroke-linejoin="round" stroke-width="1.5" stroke-dasharray="0 0"/>
        <path id="Vector-5" data-name="Vector" d="M0,1.463a28.424,28.424,0,0,1,18,0" transform="translate(0 4.538)" fill="none" stroke="#fff" stroke-linecap="round" stroke-linejoin="round" stroke-width="1.5" stroke-dasharray="0 0"/>
      </g>
      <path id="Vector-6" data-name="Vector" d="M24,0V24H0V0Z" transform="translate(24 24) rotate(180)" fill="none" opacity="0"/>
    </g>
  </g>
</svg>
