<svg xmlns="http://www.w3.org/2000/svg" width="255.809" height="35.024" viewBox="0 0 255.809 35.024">
  <g id="LightSense_logo_final" data-name="LightSense logo final" transform="translate(0 0.01)">
    <g id="Group_16199" data-name="Group 16199" transform="translate(0 0.002)">
      <path id="Path_2099" data-name="Path 2099" d="M4.4,25.943A4.276,4.276,0,0,1,0,21.316V0H5.406V21.3H21.638v4.627H4.4Z" fill="#536de6"/>
      <path id="Path_2100" data-name="Path 2100" d="M25.284,5.7a4.139,4.139,0,0,1-4.4-4.479V0h5.406V5.7h-1Zm0,20.24a4.276,4.276,0,0,1-4.4-4.627V7.893h5.406v18.05h-1Z" transform="translate(4.952 0)" fill="#536de6"/>
      <path id="Path_2101" data-name="Path 2101" d="M45.517,16.009a2.981,2.981,0,0,1-3.155-3.155V11.518H53.485V25.931h-12.3c-8.153-.26-12.557-6.594-12.557-12.965S33.034.26,41.187,0H53V4.59H41.373c-4.738,0-7.114,4.182-7.114,8.376s2.338,8.264,6.965,8.376h7.151V16.009Z" transform="translate(6.79)" fill="#536de6"/>
      <path id="Path_2102" data-name="Path 2102" d="M52.112,10.64H72.192V0H77.6V25.943H76.485a4.179,4.179,0,0,1-4.293-4.516V15.279H57.519V25.956H56.405a4.179,4.179,0,0,1-4.293-4.516V10.652Zm0-10.64h5.406V7.336H55.774A3.585,3.585,0,0,1,52.1,3.452V0Z" transform="translate(12.356)" fill="#536de6"/>
      <path id="Path_2103" data-name="Path 2103" d="M76.09,0h26.859V4.59H79.938A3.74,3.74,0,0,1,76.09.557V0ZM86.47,7.374h5.406v18.57H90.763a4.159,4.159,0,0,1-4.293-4.516Z" transform="translate(18.046)" fill="#536de6"/>
    </g>
    <path id="Path_2104" data-name="Path 2104" d="M101.565,21.156h14.029a5.19,5.19,0,0,0,2.586-.594c.359-.2.755-.569.68-1.633a2.208,2.208,0,0,0-1.435-2,29.859,29.859,0,0,0-5.567-1.806,48.3,48.3,0,0,1-5.184-1.522,10.259,10.259,0,0,1-3.687-2.289,6,6,0,0,1-1.806-4.145,6.8,6.8,0,0,1,1.769-4.924C104.237.755,106.378,0,109.3,0h13.448V4.775H109.26a4.235,4.235,0,0,0-2.363.631,1.491,1.491,0,0,0-.631,1.584c.037.495.21,1.113,1.287,1.584a29.811,29.811,0,0,0,5.122,1.509,52.975,52.975,0,0,1,5.493,1.534A10.261,10.261,0,0,1,122.09,14.1a6.8,6.8,0,0,1,1.856,4.7,7.252,7.252,0,0,1-1.806,4.9c-1.262,1.485-3.39,2.239-6.31,2.239h-9.489a4.778,4.778,0,0,1-4.775-4.775Z" transform="translate(23.995 0.002)" fill="#28367b"/>
    <path id="Path_2105" data-name="Path 2105" d="M168.135,21.156h14.029a5.19,5.19,0,0,0,2.586-.594c.359-.2.755-.569.68-1.633a2.208,2.208,0,0,0-1.435-2,29.859,29.859,0,0,0-5.567-1.806,48.306,48.306,0,0,1-5.184-1.522,10.259,10.259,0,0,1-3.687-2.289,6,6,0,0,1-1.806-4.145,6.8,6.8,0,0,1,1.769-4.924C170.807.755,172.948,0,175.867,0h13.448V4.775H175.83a4.235,4.235,0,0,0-2.363.631,1.491,1.491,0,0,0-.631,1.584c.037.495.21,1.113,1.287,1.584a29.812,29.812,0,0,0,5.122,1.509,52.973,52.973,0,0,1,5.493,1.534A10.261,10.261,0,0,1,188.66,14.1a6.8,6.8,0,0,1,1.856,4.7,7.252,7.252,0,0,1-1.806,4.9c-1.262,1.485-3.39,2.239-6.31,2.239h-9.489a4.778,4.778,0,0,1-4.775-4.775Z" transform="translate(39.783 0.002)" fill="#28367b"/>
    <path id="Path_2106" data-name="Path 2106" d="M122.96,0h21.069V4.419h-17.3a3.686,3.686,0,0,1-3.773-4V-.01Zm0,9.489h18.718v4.417h-13.51V20.5h16.12v4.454H127.216c-2.536,0-4.243-1.782-4.243-4.491V9.491Z" transform="translate(29.162)" fill="#28367b"/>
    <path id="Path_2107" data-name="Path 2107" d="M191.242,28.059c1.064,2.858-.148,5.592-2.821,6.31a19.3,19.3,0,0,1-4.887.643c-10.293,0-22.714-13.7-22.714-13.7l-.037-.037L148.448,6.446V24.954h-.965A4.117,4.117,0,0,1,143.24,20.5V0h5.382l15.229,18.149.037-.037.21.285V0h5.208V23.605c4.417,3.773,9.3,6.421,14.438,6.421a15.2,15.2,0,0,0,7.448-1.992l.037.037Z" transform="translate(33.972 0.002)" fill="#536de6"/>
    <path id="Path_2108" data-name="Path 2108" d="M189.53,0H210.6V4.419H193.3a3.686,3.686,0,0,1-3.773-4V-.01Zm0,9.489h18.718v4.417h-13.51V20.5h16.12v4.454H193.786c-2.536,0-4.243-1.782-4.243-4.491V9.491Z" transform="translate(44.95)" fill="#28367b"/>
  </g>
</svg>
