<svg id="scan-barcode" xmlns="http://www.w3.org/2000/svg" width="24" height="24" viewBox="0 0 24 24">
  <g id="vuesax_twotone_scan-barcode" data-name="vuesax/twotone/scan-barcode">
    <g id="scan-barcode-2" data-name="scan-barcode">
      <path id="Vector" d="M0,7V4.5A4.494,4.494,0,0,1,4.5,0H7" transform="translate(2 2)" fill="none" stroke="#28367a" stroke-linecap="round" stroke-linejoin="round" stroke-width="1.5" stroke-dasharray="0 0"/>
      <path id="Vector-2" data-name="Vector" d="M0,0H2.5A4.494,4.494,0,0,1,7,4.5V7" transform="translate(15 2)" fill="none" stroke="#28367a" stroke-linecap="round" stroke-linejoin="round" stroke-width="1.5" stroke-dasharray="0 0"/>
      <path id="Vector-3" data-name="Vector" d="M6,0V1.5A4.494,4.494,0,0,1,1.5,6H0" transform="translate(16 16)" fill="none" stroke="#28367a" stroke-linecap="round" stroke-linejoin="round" stroke-width="1.5" stroke-dasharray="0 0"/>
      <path id="Vector-4" data-name="Vector" d="M7,7H4.5A4.494,4.494,0,0,1,0,2.5V0" transform="translate(2 15)" fill="none" stroke="#28367a" stroke-linecap="round" stroke-linejoin="round" stroke-width="1.5" stroke-dasharray="0 0"/>
      <path id="Vector-5" data-name="Vector" d="M5,3.5A1.326,1.326,0,0,1,3.5,5h-2A1.326,1.326,0,0,1,0,3.5v-2A1.326,1.326,0,0,1,1.5,0h2A1.326,1.326,0,0,1,5,1.5Z" transform="translate(5.5 5.5)" fill="none" stroke="#28367a" stroke-linecap="round" stroke-linejoin="round" stroke-width="1.5" stroke-dasharray="0 0" opacity="0.4"/>
      <path id="Vector-6" data-name="Vector" d="M5,3.5A1.326,1.326,0,0,1,3.5,5h-2A1.326,1.326,0,0,1,0,3.5v-2A1.326,1.326,0,0,1,1.5,0h2A1.326,1.326,0,0,1,5,1.5Z" transform="translate(13.5 5.5)" fill="none" stroke="#28367a" stroke-linecap="round" stroke-linejoin="round" stroke-width="1.5" stroke-dasharray="0 0" opacity="0.4"/>
      <path id="Vector-7" data-name="Vector" d="M5,3.5A1.326,1.326,0,0,1,3.5,5h-2A1.326,1.326,0,0,1,0,3.5v-2A1.326,1.326,0,0,1,1.5,0h2A1.326,1.326,0,0,1,5,1.5Z" transform="translate(5.5 13.5)" fill="none" stroke="#28367a" stroke-linecap="round" stroke-linejoin="round" stroke-width="1.5" stroke-dasharray="0 0" opacity="0.4"/>
      <path id="Vector-8" data-name="Vector" d="M5,3.5A1.326,1.326,0,0,1,3.5,5h-2A1.326,1.326,0,0,1,0,3.5v-2A1.326,1.326,0,0,1,1.5,0h2A1.326,1.326,0,0,1,5,1.5Z" transform="translate(13.5 13.5)" fill="none" stroke="#28367a" stroke-linecap="round" stroke-linejoin="round" stroke-width="1.5" stroke-dasharray="0 0" opacity="0.4"/>
      <path id="Vector-9" data-name="Vector" d="M24,0V24H0V0Z" transform="translate(24 24) rotate(180)" fill="none" opacity="0"/>
    </g>
  </g>
</svg>
